<!DOCTYPE svg PUBLIC "-//W3C//DTD SVG 1.1//EN" "http://www.w3.org/Graphics/SVG/1.1/DTD/svg11.dtd">
<svg width="106mm" height="22.69mm" viewBox="0 0 106 22.69" xmlns="http://www.w3.org/2000/svg" version="1.1" xmlns:xlink="http://www.w3.org/1999/xlink">
<title>Airfoil plot (clarky-il) CLARK Y AIRFOIL by AirfoilTools.com</title>
<g transform="translate(3,12.16266)"><g transform="scale(1,-1)"><line fill="none" stroke="green" stroke-width="0.05" x1="10" x2="10" y1="-6.03" y2="12.16"></line><line fill="none" stroke="green" stroke-width="0.05" x1="20" x2="20" y1="-6.03" y2="12.16"></line><line fill="none" stroke="green" stroke-width="0.05" x1="30" x2="30" y1="-6.03" y2="12.16"></line><line fill="none" stroke="green" stroke-width="0.05" x1="40" x2="40" y1="-6.03" y2="12.16"></line><line fill="none" stroke="green" stroke-width="0.05" x1="50" x2="50" y1="-6.03" y2="12.16"></line><line fill="none" stroke="green" stroke-width="0.05" x1="60" x2="60" y1="-6.03" y2="12.16"></line><line fill="none" stroke="green" stroke-width="0.05" x1="70" x2="70" y1="-6.03" y2="12.16"></line><line fill="none" stroke="green" stroke-width="0.05" x1="80" x2="80" y1="-6.03" y2="12.16"></line><line fill="none" stroke="green" stroke-width="0.05" x1="90" x2="90" y1="-6.03" y2="12.16"></line><line fill="none" stroke="green" stroke-width="0.05" x1="100" x2="100" y1="-6.03" y2="12.16"></line><line fill="none" stroke="green" stroke-width="0.05" x1="-3" x2="103" y1="10" y2="10"></line>
<path fill="none" stroke="red" stroke-width="0.1" d="M 100 0.06 L 99 0.3 L 98 0.53 L 97 0.77 L 96 1 L 94 1.46 L 92 1.91 L 90 2.35 L 88 2.78 L 86 3.2 L 84 3.61 L 82 4 L 80 4.39 L 78 4.76 L 76 5.13 L 74 5.48 L 72 5.82 L 70 6.14 L 68 6.46 L 66 6.76 L 64 7.05 L 62 7.32 L 60 7.58 L 58 7.81 L 56 8.03 L 54 8.24 L 52 8.42 L 50 8.59 L 48 8.74 L 46 8.86 L 44 8.97 L 42 9.06 L 40 9.12 L 38 9.15 L 36 9.16 L 34 9.15 L 32 9.12 L 30 9.07 L 28 9 L 26 8.91 L 24 8.78 L 22 8.61 L 20 8.39 L 18 8.11 L 16 7.76 L 14 7.34 L 12 6.86 L 10 6.3 L 8 5.64 L 6 4.88 L 5 4.43 L 4 3.91 L 3 3.3 L 2 2.54 L 1.2 1.79 L 0.8 1.37 L 0.4 0.89 L 0.2 0.58 L 0.1 0.37 L 0.05 0.23 L 0 0 L 0.05 -0.47 L 0.1 -0.59 L 0.2 -0.78 L 0.4 -1.05 L 0.8 -1.43 L 1.2 -1.7 L 2 -2.03 L 3 -2.26 L 4 -2.45 L 5 -2.6 L 6 -2.71 L 8 -2.85 L 10 -2.94 L 12 -3 L 14 -3.02 L 16 -3.03 L 18 -3 L 20 -2.97 L 22 -2.91 L 24 -2.85 L 26 -2.78 L 28 -2.71 L 30 -2.63 L 32 -2.56 L 34 -2.48 L 36 -2.41 L 38 -2.34 L 40 -2.26 L 42 -2.19 L 44 -2.12 L 46 -2.04 L 48 -1.97 L 50 -1.9 L 52 -1.82 L 54 -1.75 L 56 -1.68 L 58 -1.6 L 60 -1.53 L 62 -1.46 L 64 -1.38 L 66 -1.31 L 68 -1.24 L 70 -1.16 L 72 -1.09 L 74 -1.01 L 76 -0.94 L 78 -0.87 L 80 -0.79 L 82 -0.72 L 84 -0.65 L 86 -0.57 L 88 -0.5 L 90 -0.43 L 92 -0.35 L 94 -0.28 L 96 -0.21 L 97 -0.17 L 98 -0.13 L 99 -0.1 L 100 -0.06 "></path>
<path fill="none" stroke="blue" stroke-width="0.1" d="M 0 0 L 100 0 "></path>
<line fill="none" stroke="black" stroke-width="0.1" x1="-3" x2="103" y1="0" y2="0"></line>
<line fill="none" stroke="black" stroke-width="0.1" x1="0" x2="0" y1="-6.03" y2="12.16"></line>
</g>
</g>
<g transform="translate(0,18.18812)"><g transform="scale(1,1)"><text fill="rgb(48,48,144)" font-size="1.8" style="font-family:Arial,Helvetica,sans-serif;" x="1" y="2">Name = CLARK Y AIRFOIL</text><text fill="rgb(48,48,144)" font-size="1.8" style="font-family:Arial,Helvetica,sans-serif;" x="1" y="4">Chord = 100mm  Radius = 0mm  Thickness = 100%  Origin = 0%  Pitch = 0&#176; </text></g></g></svg>